<svg width="24" height="24" viewBox="0 0 24 24" fill="none" xmlns="http://www.w3.org/2000/svg">
<g clip-path="url(#clip0_2047_147)">
<path d="M3 9C3 10.687 3.716 12.305 4.964 13.44C6.07 14.446 7.521 14.999 9.013 14.999C9.203 14.999 9.395 14.99 9.586 14.972C12.622 14.683 15 11.965 15 8.785V8H16V6H15V5.5C15 2.468 12.533 0 9.5 0H8.5C5.467 0 3 2.468 3 5.5V6H2V8H3V9ZM13 8.785C13 10.945 11.417 12.788 9.396 12.981C8.25 13.087 7.153 12.728 6.31 11.96C5.477 11.202 5 10.124 5 8.999V7.999H13V8.785ZM5 5.5C5 3.742 6.308 2.296 8 2.051V5H10V2.051C11.692 2.296 13 3.742 13 5.5V6H5V5.5ZM13 18H5C3.346 18 2 19.346 2 21V24H0V21C0 18.243 2.243 16 5 16H13V18ZM19 21H24V24H19V21ZM24 11V14H19V11H24ZM12 21H17V24H12V21ZM15 16H20V19H15V16ZM22 16H24V19H22V16Z" fill="#FDFDFD"/>
</g>
<defs>
<clipPath id="clip0_2047_147">
<rect width="24" height="24" fill="white"/>
</clipPath>
</defs>
</svg>
