<svg width="24" height="24" viewBox="0 0 24 24" fill="none" xmlns="http://www.w3.org/2000/svg">
<g clip-path="url(#clip0_2047_133)">
<path d="M21 0H13V8H24V3C24 1.346 22.654 0 21 0ZM22 6H15V2H21C21.552 2 22 2.449 22 3V6ZM8 4H3C1.346 4 0 5.346 0 7V24H24V10H8V4ZM2 7C2 6.449 2.448 6 3 6H6V10H2V7ZM2 18H6V22H2V18ZM16 18V22H8V18H16ZM18 22V18H22V22H18ZM22 16H13V12H22V16ZM11 12V16H2V12H11Z" fill="#FDFDFD"/>
</g>
<defs>
<clipPath id="clip0_2047_133">
<rect width="24" height="24" fill="white"/>
</clipPath>
</defs>
</svg>
