<svg width="24" height="24" viewBox="0 0 24 24" fill="none" xmlns="http://www.w3.org/2000/svg">
<path d="M20.9997 21.4999V23.9999H18.9997V21.4999C18.9997 20.1749 17.9607 19.0979 16.6557 19.0159L13.9997 22.9999L11.9997 19.9999L9.99967 22.9999L7.34367 19.0159C6.03867 19.0979 4.99967 20.1749 4.99967 21.4999V23.9999H2.99967V21.4999C2.99967 19.0189 5.01867 16.9999 7.49967 16.9999H16.4997C18.9807 16.9999 20.9997 19.0189 20.9997 21.4999ZM12.8237 6.09491C14.0787 6.38391 15.1017 7.39891 15.3987 8.65191C15.5997 9.49891 15.4897 10.3109 15.1607 10.9999H16.4667C16.9677 10.9999 17.4057 10.6319 17.4637 10.1339C17.5317 9.54691 17.5067 8.93191 17.3727 8.30291C16.9287 6.22391 15.2417 4.54691 13.1597 4.11891C9.62267 3.39191 6.50067 6.08891 6.50067 9.49991C6.50067 10.9689 7.07967 12.3049 8.02067 13.2919C8.06067 12.4439 8.36667 11.6649 8.85667 11.0359C8.62867 10.5719 8.50067 10.0499 8.50067 9.49891C8.50067 7.29991 10.5387 5.56791 12.8247 6.09391L12.8237 6.09491ZM6.87067 4.02791C8.39967 2.59491 10.4017 1.88691 12.5007 2.01691C16.4247 2.27091 19.4997 5.68591 19.4997 9.79091C19.4997 11.5609 18.0607 12.9999 16.2907 12.9999H13.8847C13.6407 12.1709 12.8827 11.5609 11.9747 11.5609C10.8697 11.5609 9.97467 12.4559 9.97467 13.5609C9.97467 14.6659 10.8697 15.5609 11.9747 15.5609C12.5127 15.5609 12.9997 15.3459 13.3587 14.9999H16.2907C19.1627 14.9999 21.4997 12.6629 21.4997 9.79091C21.4997 4.63391 17.6037 0.34191 12.6297 0.0209097C9.96567 -0.15209 7.43867 0.75291 5.50367 2.56891C3.71667 4.24391 2.64267 6.56491 2.51367 9.00091H4.51667C4.63967 7.09791 5.46467 5.34691 6.87167 4.02791H6.87067Z" fill="#FDFDFD"/>
</svg>
