<svg width="40" height="40" viewBox="0 0 40 40" fill="none" xmlns="http://www.w3.org/2000/svg">
<rect width="40" height="40" rx="20" fill="#0C2445"/>
<path d="M25 10H15C12.2386 10 10 12.2386 10 15V25C10 27.7614 12.2386 30 15 30H25C27.7614 30 30 27.7614 30 25V15C30 12.2386 27.7614 10 25 10Z" stroke="white" stroke-width="2" stroke-linecap="round" stroke-linejoin="round"/>
<path d="M23.9997 19.3703C24.1231 20.2025 23.981 21.0525 23.5935 21.7993C23.206 22.5461 22.5929 23.1517 21.8413 23.53C21.0898 23.9082 20.2382 24.0399 19.4075 23.9062C18.5768 23.7726 17.8095 23.3804 17.2145 22.7855C16.6196 22.1905 16.2274 21.4232 16.0938 20.5925C15.9601 19.7619 16.0918 18.9102 16.47 18.1587C16.8483 17.4072 17.4539 16.794 18.2007 16.4065C18.9475 16.019 19.7975 15.8769 20.6297 16.0003C21.4786 16.1262 22.2646 16.5218 22.8714 17.1286C23.4782 17.7355 23.8738 18.5214 23.9997 19.3703Z" stroke="white" stroke-width="2" stroke-linecap="round" stroke-linejoin="round"/>
<path d="M25.5 14.5H25.51" stroke="white" stroke-width="2" stroke-linecap="round" stroke-linejoin="round"/>
</svg>
