<svg width="32" height="32" viewBox="0 0 32 32" fill="none" xmlns="http://www.w3.org/2000/svg">
<rect width="32" height="32" rx="16" fill="#0C2445"/>
<path d="M21.3327 14.6663C21.3327 18.6663 15.9993 22.6663 15.9993 22.6663C15.9993 22.6663 10.666 18.6663 10.666 14.6663C10.666 13.2519 11.2279 11.8953 12.2281 10.8951C13.2283 9.89491 14.5849 9.33301 15.9993 9.33301C17.4138 9.33301 18.7704 9.89491 19.7706 10.8951C20.7708 11.8953 21.3327 13.2519 21.3327 14.6663Z" stroke="white" stroke-width="1.33333" stroke-linecap="round" stroke-linejoin="round"/>
<path d="M16 16.667C17.1046 16.667 18 15.7716 18 14.667C18 13.5624 17.1046 12.667 16 12.667C14.8954 12.667 14 13.5624 14 14.667C14 15.7716 14.8954 16.667 16 16.667Z" stroke="white" stroke-width="1.33333" stroke-linecap="round" stroke-linejoin="round"/>
</svg>
