<svg width="24" height="24" viewBox="0 0 24 24" fill="none" xmlns="http://www.w3.org/2000/svg">
<g clip-path="url(#clip0_2047_161)">
<path d="M5 10C5 9.448 5.448 9 6 9H9V6C9 5.448 9.448 5 10 5C10.552 5 11 5.448 11 6V9H14C14.552 9 15 9.448 15 10C15 10.552 14.552 11 14 11H11V14C11 14.552 10.552 15 10 15C9.448 15 9 14.552 9 14V11H6C5.448 11 5 10.552 5 10ZM24 9V19C24 21.757 21.757 24 19 24H9C6.554 24 4.521 22.232 4.092 19.908C1.768 19.479 0 17.446 0 15V5C0 2.243 2.243 0 5 0H15C17.446 0 19.479 1.768 19.908 4.092C22.232 4.521 24 6.554 24 9ZM5 18H15C16.654 18 18 16.654 18 15V5C18 3.346 16.654 2 15 2H5C3.346 2 2 3.346 2 5V15C2 16.654 3.346 18 5 18ZM22 9C22 7.698 21.161 6.598 20 6.184V15C20 17.757 17.757 20 15 20H6.184C6.598 21.161 7.698 22 9 22H19C20.654 22 22 20.654 22 19V9Z" fill="#FDFDFD"/>
</g>
<defs>
<clipPath id="clip0_2047_161">
<rect width="24" height="24" fill="white"/>
</clipPath>
</defs>
</svg>
