<svg width="32" height="32" viewBox="0 0 32 32" fill="none" xmlns="http://www.w3.org/2000/svg">
<rect width="32" height="32" rx="16" fill="#0C2445"/>
<path d="M24.3332 20.1004V22.6004C24.3341 22.8325 24.2866 23.0622 24.1936 23.2749C24.1006 23.4875 23.9643 23.6784 23.7933 23.8353C23.6222 23.9922 23.4203 24.1116 23.2005 24.186C22.9806 24.2603 22.7477 24.288 22.5165 24.2671C19.9522 23.9884 17.489 23.1122 15.3249 21.7087C13.3114 20.4293 11.6043 18.7222 10.3249 16.7087C8.91651 14.5347 8.04007 12.0596 7.76653 9.48374C7.7457 9.2533 7.77309 9.02104 7.84695 8.80176C7.9208 8.58248 8.03951 8.38098 8.1955 8.21009C8.3515 8.0392 8.54137 7.90266 8.75302 7.80917C8.96468 7.71569 9.19348 7.66729 9.42486 7.66707H11.9249C12.3293 7.66309 12.7214 7.80631 13.028 8.07002C13.3346 8.33373 13.5349 8.69995 13.5915 9.10041C13.697 9.90046 13.8927 10.686 14.1749 11.4421C14.287 11.7403 14.3112 12.0645 14.2448 12.3761C14.1783 12.6878 14.0239 12.9738 13.7999 13.2004L12.7415 14.2587C13.9278 16.345 15.6552 18.0724 17.7415 19.2587L18.7999 18.2004C19.0264 17.9764 19.3125 17.8219 19.6241 17.7555C19.9358 17.689 20.2599 17.7133 20.5582 17.8254C21.3143 18.1075 22.0998 18.3032 22.8999 18.4087C23.3047 18.4658 23.6744 18.6697 23.9386 18.9817C24.2029 19.2936 24.3433 19.6917 24.3332 20.1004Z" stroke="white" stroke-width="1.66667" stroke-linecap="round" stroke-linejoin="round"/>
</svg>
