<svg width="24" height="24" viewBox="0 0 24 24" fill="none" xmlns="http://www.w3.org/2000/svg">
<g clip-path="url(#clip0_2047_140)">
<path d="M23.2704 17.232C23.2704 17.232 20.0714 14.158 20.0614 14.149C19.9814 13.734 19.8954 13.27 20.3414 13.002C21.3324 12.37 21.9904 11.199 21.9734 10.005C21.9904 8.80005 21.3364 7.63505 20.3404 6.99805C20.0724 6.82505 19.9354 6.51805 20.0004 6.23305C20.1344 5.64005 20.1144 5.03305 19.9404 4.42805C19.6114 3.28005 18.6934 2.36305 17.5464 2.03405C16.9414 1.86005 16.3344 1.84005 15.7424 1.97505C15.4574 2.03905 15.1514 1.90305 14.9784 1.63505C14.6574 1.13605 14.2204 0.732047 13.6814 0.433047C12.6374 -0.146953 11.3394 -0.146953 10.2944 0.433047C9.75541 0.732047 9.31941 1.13605 8.99841 1.63405C8.82541 1.90305 8.52141 2.04005 8.23341 1.97505C7.64241 1.84005 7.03541 1.86105 6.43041 2.03405C5.28241 2.36305 4.36441 3.28105 4.03641 4.42805C3.86241 5.03405 3.84241 5.64105 3.97641 6.23305C4.04041 6.51705 3.90441 6.82405 3.63541 6.99805C2.64341 7.63105 1.98541 8.80105 2.00241 9.99505C1.98541 11.201 2.63941 12.364 3.63641 13.002C4.08841 13.274 3.99041 13.745 3.91241 14.165C3.91041 14.167 0.728415 17.232 0.728415 17.232C0.0564145 17.88 -0.171585 18.831 0.132415 19.713C0.437415 20.595 1.20241 21.202 2.13041 21.298L2.87441 21.375L2.95541 21.954C3.07941 22.846 3.68541 23.58 4.53741 23.871C5.37641 24.16 6.31641 23.956 6.95841 23.326L10.6794 19.72C11.1004 19.89 11.5404 20.002 11.9894 20.002C12.4444 20.002 12.8894 19.888 13.3144 19.713L17.0384 23.322C17.6834 23.955 18.6214 24.16 19.4624 23.871C20.3144 23.58 20.9204 22.846 21.0454 21.954L21.1254 21.376L21.8694 21.299C22.7974 21.203 23.5634 20.596 23.8674 19.714C24.1714 18.832 23.9434 17.881 23.2714 17.233L23.2704 17.232ZM5.56241 21.892C5.30741 22.114 4.97941 22.023 4.93541 21.678L4.74741 20.324C4.68441 19.868 4.31741 19.514 3.85941 19.467L2.33541 19.309C1.97241 19.277 1.88141 18.886 2.11541 18.672L4.43041 16.44C4.88341 17.167 5.59241 17.726 6.42941 17.966C7.03441 18.139 7.64241 18.16 8.23341 18.025C8.57941 17.934 8.89341 18.183 9.08841 18.474L5.56141 21.892H5.56241ZM11.2644 17.818C11.0174 17.681 10.8204 17.5 10.6794 17.281C10.1614 16.48 9.28241 16.01 8.37341 16.01C7.90141 16.008 7.46241 16.212 6.98241 16.044C6.49941 15.906 6.09741 15.504 5.95941 15.021C5.87941 14.743 5.86941 14.47 5.92841 14.21C6.17741 13.11 5.69341 11.95 4.72341 11.323C4.29041 11.042 3.99441 10.541 4.00441 9.99605C3.99441 9.46305 4.29441 8.95505 4.72241 8.67905C5.69441 8.05205 6.17841 6.89205 5.92841 5.79105C5.86941 5.53105 5.88041 5.25905 5.96041 4.98005C6.09841 4.49705 6.49941 4.09605 6.98341 3.95805C7.26141 3.87905 7.53441 3.86805 7.79341 3.92605C8.89141 4.17705 10.0544 3.69305 10.6814 2.72005C10.8224 2.50105 11.0194 2.32105 11.2664 2.18305C11.7054 1.94005 12.2744 1.94005 12.7144 2.18305C12.9624 2.32105 13.1594 2.50105 13.3004 2.72005C13.9274 3.69205 15.0884 4.17505 16.1874 3.92605C16.4484 3.86805 16.7204 3.87805 16.9974 3.95805C17.4804 4.09605 17.8824 4.49805 18.0214 4.98105C18.1014 5.25905 18.1114 5.53205 18.0524 5.79105C17.8024 6.89105 18.2864 8.05205 19.2574 8.67805C19.6894 8.95905 19.9854 9.46005 19.9754 10.005C19.9854 10.538 19.6854 11.046 19.2584 11.322C18.2864 11.949 17.8014 13.109 18.0514 14.209C18.1104 14.47 18.1004 14.743 18.0204 15.02C17.8814 15.503 17.4804 15.905 16.9964 16.043C16.7214 16.123 16.4484 16.135 16.1874 16.075C15.0894 15.825 13.9274 16.31 13.2994 17.281C13.1584 17.5 12.9614 17.68 12.7134 17.818C12.2744 18.061 11.7044 18.061 11.2644 17.818ZM21.6634 19.309L20.1394 19.467C19.6814 19.514 19.3154 19.868 19.2514 20.324L19.0644 21.678C19.0054 22.014 18.6774 22.12 18.4334 21.889L14.8974 18.462C15.0904 18.173 15.4014 17.935 15.7434 18.025C16.3354 18.16 16.9414 18.139 17.5464 17.966C18.3894 17.725 19.1034 17.162 19.5554 16.428L21.8834 18.672C22.0324 18.816 22.0904 19.243 21.6634 19.309ZM16.3484 11.728L16.9694 9.24305C17.1344 8.17605 16.3814 7.00805 14.9994 7.00005H12.5704L12.9574 5.79505C12.9994 5.54605 12.9784 5.40805 12.9624 5.34805C12.8224 4.83305 12.4024 4.50005 11.8934 4.50005C11.4604 4.50405 11.1814 4.73005 10.9064 5.13505L9.42741 6.99905H9.00041C7.89741 6.99905 7.00041 7.89605 7.00041 8.99905V11.999C7.00041 13.102 7.89741 13.999 9.00041 13.999H13.4384C14.8174 13.999 16.0144 13.065 16.3484 11.728ZM14.4084 11.243C14.2974 11.689 13.8984 12.001 13.4384 12.001H11.0004V9.00105H14.9694L14.4084 11.243Z" fill="#FDFDFD"/>
</g>
<defs>
<clipPath id="clip0_2047_140">
<rect width="24" height="24" fill="white"/>
</clipPath>
</defs>
</svg>
