<svg width="46" height="46" viewBox="0 0 46 46" fill="none" xmlns="http://www.w3.org/2000/svg">
<rect width="46" height="46" rx="23" fill="#0C2445"/>
<g clip-path="url(#clip0_2047_271)">
<path d="M27.395 21.122L22.203 18.279C21.53 17.9 20.73 17.907 20.065 18.296C19.398 18.686 19.001 19.379 19.001 20.151V25.85C19.001 26.622 19.398 27.315 20.065 27.705C20.405 27.904 20.779 28.002 21.152 28.002C21.51 28.002 21.868 27.911 22.193 27.728L27.405 24.874C28.092 24.488 28.501 23.788 28.501 23.001C28.501 22.214 28.092 21.514 27.396 21.123L27.395 21.122ZM26.434 23.125L21.222 25.98C21.203 25.99 21.145 26.022 21.075 25.979C21.001 25.936 21.001 25.872 21.001 25.851V20.152C21.001 20.131 21.001 20.067 21.075 20.024C21.102 20.008 21.127 20.003 21.149 20.003C21.185 20.003 21.214 20.019 21.232 20.029L26.424 22.873C26.443 22.884 26.5 22.916 26.5 23.003C26.5 23.09 26.442 23.122 26.434 23.128V23.125ZM23 11C16.383 11 11 16.383 11 23C11 29.617 16.383 35 23 35C29.617 35 35 29.617 35 23C35 16.383 29.617 11 23 11ZM23 33C17.486 33 13 28.514 13 23C13 17.486 17.486 13 23 13C28.514 13 33 17.486 33 23C33 28.514 28.514 33 23 33Z" fill="#FDFDFD"/>
</g>
<defs>
<clipPath id="clip0_2047_271">
<rect width="24" height="24" fill="white" transform="translate(11 11)"/>
</clipPath>
</defs>
</svg>
